<?xml version="1.0" encoding="utf-8"?>
<!-- Generator: Adobe Illustrator 25.4.1, SVG Export Plug-In . SVG Version: 6.00 Build 0)  -->
<svg version="1.1" id="Layer_1" xmlns="http://www.w3.org/2000/svg" xmlns:xlink="http://www.w3.org/1999/xlink" x="0px" y="0px"
	 viewBox="0 0 815 146.1" style="enable-background:new 0 0 815 146.1;" xml:space="preserve">
<style type="text/css">
	.st0{fill:url(#SVGID_1_);}
	.st1{fill:url(#SVGID_00000125584251848462444290000007798768961420848773_);}
	.st2{fill:url(#SVGID_00000008861436434646258020000011243841016581984159_);}
	.st3{fill:url(#SVGID_00000163051048524698305060000005095167962742162862_);}
	.st4{fill:url(#SVGID_00000031905670678864013130000006372937468188567962_);}
	.st5{fill:url(#SVGID_00000058560344875657744840000010720843816856614064_);}
	.st6{fill:url(#SVGID_00000072265895359132615800000015057825987774953660_);}
	.st7{fill:url(#SVGID_00000052817213846840803930000003983934196867874741_);}
	.st8{fill:url(#SVGID_00000141438395288545211560000011877053065304094632_);}
	.st9{fill:url(#SVGID_00000178920687675646566980000015133968294912919223_);}
	.st10{fill:url(#SVGID_00000101818196435950787260000010012412839717159579_);}
	.st11{fill:url(#SVGID_00000183222803998828196000000009043065258429365377_);}
	.st12{fill:#74CDDF;}
	.st13{fill:#EB9D23;}
	.st14{fill:url(#SVGID_00000035526867967167923540000005456324272162178205_);}
	.st15{fill:url(#SVGID_00000076572453002292607700000002222112916656807842_);}
	.st16{fill:url(#SVGID_00000034790267167233156860000010588035256865879434_);}
	.st17{fill:url(#SVGID_00000134213097618124648490000008760392820408582025_);}
	.st18{fill:url(#SVGID_00000142178081199133786950000016136775690861072024_);}
	.st19{fill:url(#SVGID_00000065070250715784883220000000001415882846176676_);}
	.st20{fill:url(#SVGID_00000075149756073961612860000002525591452756313515_);}
	.st21{fill:url(#SVGID_00000089549667805038573530000018143965796674229906_);}
	.st22{fill:url(#SVGID_00000160165877510708457620000013311525336560354747_);}
	.st23{fill:url(#SVGID_00000018200075940446556160000013441234428580846744_);}
	.st24{fill:url(#SVGID_00000138563747976103737930000004582313773371469979_);}
	.st25{fill:url(#SVGID_00000028322702223585690800000000067849850462864532_);}
	.st26{fill:url(#SVGID_00000034778637525923592140000016232473959976783290_);}
	.st27{fill:url(#SVGID_00000081648929252497321970000008222325251512786861_);}
	.st28{fill:url(#SVGID_00000013177881693345499020000015256037445774194090_);}
	.st29{fill:url(#SVGID_00000123413007070522180750000006796193017402808225_);}
	.st30{fill:url(#SVGID_00000143612003978015509930000004259752465219909286_);}
	.st31{fill:url(#SVGID_00000124157651583290348180000013708449296550988174_);}
	.st32{fill:url(#SVGID_00000104664098405058348570000000546997124563354796_);}
	.st33{fill:url(#SVGID_00000118383476604265469620000016191654159243775142_);}
	.st34{fill:url(#SVGID_00000092436723874651020820000010616033011240752061_);}
	.st35{fill:url(#SVGID_00000114791961599656182930000010791630595861180351_);}
	.st36{fill:url(#SVGID_00000076601607767783501100000001931538508541810062_);}
	.st37{fill:url(#SVGID_00000085955718643213798660000013588383322910063489_);}
	.st38{fill:url(#SVGID_00000049943713840330673010000010756577360241403025_);}
	.st39{fill:url(#SVGID_00000030455173114804065450000017793946936418876342_);}
	.st40{fill:url(#SVGID_00000129890576947873527840000017055691181337766807_);}
	.st41{fill:url(#SVGID_00000085212116936030706490000017415599474096768681_);}
</style>
<g>
	
		<linearGradient id="SVGID_1_" gradientUnits="userSpaceOnUse" x1="54.9046" y1="-117.2178" x2="54.9046" y2="-12.4637" gradientTransform="matrix(1 0 0 1 104 144)">
		<stop  offset="0" style="stop-color:#9D4A24"/>
		<stop  offset="0.2" style="stop-color:#E9D68A"/>
		<stop  offset="0.44" style="stop-color:#F3EB9A"/>
		<stop  offset="0.73" style="stop-color:#E9D68A"/>
		<stop  offset="1" style="stop-color:#9D4A24"/>
	</linearGradient>
	<path class="st0" d="M133.7,32.3c1.7-0.3,3.4-0.6,4.9-0.8c1.5-0.2,3-0.4,4.2-0.5s2.2-0.3,3-0.3c0.8-0.1,1.3-0.1,1.5-0.1
		c0.7-0.1,1.5,0.4,1.6,1.1c0,0.1,0,0.3,0,0.4v25.7l24-24.7c0.6-0.7,1.4-1.2,2.2-1.4c0.5-0.1,1.1-0.2,1.6-0.3
		c0.6-0.1,1.3-0.1,1.9-0.2c0.6,0,1.2-0.1,1.7-0.1h1.2c0.4-0.1,0.9,0.2,1,0.6c0.1,0.3,0,0.7-0.2,1l-24.1,22.5L184,86.1
		c0.2,0.2,0.3,0.6,0.1,0.9c-0.2,0.3-0.5,0.5-0.9,0.6c-0.6,0.1-1.3,0.2-2.1,0.3s-1.7,0.1-2.6,0.2c-0.8,0-1.6,0.1-2.3,0.1h-1.4
		c0,0-1.4,0.6-1.8,0l-24-30V87c-0.3,0.7-0.8,1.3-1.5,1.4l0,0c-0.6,0.1-1.2,0.2-1.8,0.3c-0.7,0.1-1.3,0.1-2,0.2
		c-0.7,0.1-1.2,0.1-1.8,0.3h-1.2c-0.6-0.2-1.1-0.6-1.2-1.2c0-0.1,0.6-0.2,0.6-0.2V39.3c0-0.9-0.1-1.8-0.5-2.7
		c-0.3-0.6-0.7-1-1.3-1.3s-1.2-0.4-1.9-0.4c-0.8,0-1.6,0.1-2.4,0.1L133.7,32.3z"/>
	
		<linearGradient id="SVGID_00000147221278589855856250000010615119191785160328_" gradientUnits="userSpaceOnUse" x1="104.55" y1="-117.7613" x2="104.55" y2="-12.8772" gradientTransform="matrix(1 0 0 1 104 144)">
		<stop  offset="0" style="stop-color:#9D4A24"/>
		<stop  offset="0.2" style="stop-color:#E9D68A"/>
		<stop  offset="0.44" style="stop-color:#F3EB9A"/>
		<stop  offset="0.73" style="stop-color:#E9D68A"/>
		<stop  offset="1" style="stop-color:#9D4A24"/>
	</linearGradient>
	<path style="fill:url(#SVGID_00000147221278589855856250000010615119191785160328_);" d="M203,80.7c-0.2,0.8-0.2,1.4-0.1,1.8
		c0,0.4,0.2,0.7,0.4,1c0.3,0.3,0.7,0.5,1.1,0.5c0.7,0.1,2.1,0.1,2.1,0.1h5.2c2.4,0,4.3,0,5.9-0.2c1.4-0.1,2.7-0.4,3.9-1.1
		c1.1-0.7,2.1-1.6,2.8-2.8c1-1.7,2-3.6,2.7-5.5l2.3,0.5c0,0.2-0.1,0.8-0.2,1.6c-0.1,0.9-0.3,1.9-0.5,3.1c-0.2,1.2-0.5,2.4-0.7,3.6
		c-0.3,1.2-0.5,2.3-0.8,3.2c-0.3,1-1.2,1.6-2.2,1.5c-1.1,0-2.5,0-4,0h-5.2c-1.8,0-3.9,0-6.1,0c-2.2,0-4.4,0-6.8,0h-7.5
		c-0.3,0-0.7-0.1-0.9-0.4c-0.1-0.2-0.2-0.5-0.2-0.7V39.5c0.1-0.9-0.1-1.7-0.5-2.5c-0.3-0.5-0.8-1-1.3-1.2c-0.6-0.3-1.3-0.4-1.9-0.4
		c-0.8,0-1.5,0.1-2.3,0.1l-0.3-2.7c0.7-0.1,1.7-0.3,3-0.5s2.7-0.4,4.1-0.6s2.8-0.3,4.1-0.5c1.3-0.1,2.4-0.2,3.1-0.2H220
		c1.1,0,2.3,0,3.5,0s2.5,0,4-0.1c0.4-0.1,0.8,0.3,0.9,0.7l0,0c0,0.4,0.1,1,0.1,1.8s0.1,1.6,0.1,2.5s0.1,1.8,0.1,2.7
		c0,0.9,0.1,1.8,0.1,2.5c0,0.8,0,1.5,0.1,2c0,0.5,0,0.9,0,1l-2.4,0.2c-0.4-1.8-1-3.6-1.7-5.4c-0.4-1.1-1.2-2.1-2.2-2.8
		c-1-0.6-2.2-1-3.3-1.1c-1.4-0.1-3.1-0.2-5.3-0.2h-8.9c0,0-0.9,0.1-1.2,0.2c-0.2,0-0.5,0.1-0.6,0.2c-0.1,0.2-0.2,0.4-1,0.6v1v20
		c3.5-0.1,5.9-0.3,8.2-0.4c2.3-0.1,4.2-0.2,5.9-0.3c1.7-0.1,3-0.1,4-0.2l1.9-0.1c0.4,0,0.7,0.1,1,0.4s0.4,0.7,0.4,1.1
		c0,0.6,0,1.3-0.1,1.9c-0.1,0.7-0.1,1.4-0.2,2.1l-19.9-0.7v20.1H203z"/>
	
		<linearGradient id="SVGID_00000124858935776272659790000008724342946376721319_" gradientUnits="userSpaceOnUse" x1="152" y1="-117.2046" x2="152" y2="-12.2844" gradientTransform="matrix(1 0 0 1 104 144)">
		<stop  offset="0" style="stop-color:#9D4A24"/>
		<stop  offset="0.2" style="stop-color:#E9D68A"/>
		<stop  offset="0.44" style="stop-color:#F3EB9A"/>
		<stop  offset="0.73" style="stop-color:#E9D68A"/>
		<stop  offset="1" style="stop-color:#9D4A24"/>
	</linearGradient>
	<path style="fill:url(#SVGID_00000124858935776272659790000008724342946376721319_);" d="M244.4,30.6c0.4,0,0.8,0.1,1.2,0.4
		c0.3,0.4,0.6,0.8,0.9,1.3l13.8,25L272,33.1c0.2-0.3,0.4-0.7,0.6-0.9c0.3-0.3,0.6-0.4,1-0.5c0.5-0.1,1-0.2,1.5-0.3l1.5-0.2
		c0.5,0,0.9-0.1,1.3-0.1h0.9c0.6,0,0.8,0.2,0.8,0.5s-0.1,0.7-0.3,0.9L262,62v25.1c0.1,0.7-0.4,1.3-1.1,1.4l0,0
		c-0.6,0.1-1.2,0.2-1.8,0.3c-0.7,0.1-1.3,0.1-2,0.2s-1.2,0.1-1.7,0.1h-1.2c-0.6,0-1.1-0.4-1.1-1c0-0.1,0-0.1,0-0.2v-25l-13.4-24.2
		c-0.6-1.2-1.3-2.2-2.3-3.1c-0.8-0.6-1.7-0.9-2.6-0.8c-0.7,0-1.3,0.1-2,0.2l-0.3-2.7c1.4-0.3,2.8-0.5,4.1-0.8
		c1.3-0.2,2.5-0.4,3.6-0.5s2-0.3,2.8-0.3C243.8,30.6,244.2,30.6,244.4,30.6z"/>
	
		<linearGradient id="SVGID_00000076574670782834215790000000092276442338959772_" gradientUnits="userSpaceOnUse" x1="230.2516" y1="-117.6538" x2="230.2516" y2="-12.3738" gradientTransform="matrix(1 0 0 1 104 144)">
		<stop  offset="0" style="stop-color:#9D4A24"/>
		<stop  offset="0.2" style="stop-color:#E9D68A"/>
		<stop  offset="0.44" style="stop-color:#F3EB9A"/>
		<stop  offset="0.73" style="stop-color:#E9D68A"/>
		<stop  offset="1" style="stop-color:#9D4A24"/>
	</linearGradient>
	<path style="fill:url(#SVGID_00000076574670782834215790000000092276442338959772_);" d="M347.6,44.6c-0.3-1.6-0.8-3.2-1.6-4.7
		c-0.7-1.3-1.6-2.4-2.7-3.3c-1.1-0.8-2.3-1.5-3.7-1.9c-1.4-0.4-2.9-0.6-4.4-0.6s-3,0.2-4.4,0.6c-1.4,0.3-2.6,1-3.7,1.8
		s-1.9,1.9-2.5,3.2c-0.7,1.4-1,3-1,4.6c0,1.4,0.3,2.9,1.1,4.1c0.8,1.2,1.8,2.2,3,3c1.4,0.9,2.8,1.6,4.4,2.2c1.6,0.7,3.4,1.3,5.1,2
		c2,0.8,3.9,1.6,5.9,2.4c1.9,0.8,3.7,1.9,5.3,3.2c1.5,1.3,2.8,2.8,3.8,4.6c1,2,1.5,4.3,1.4,6.5c0,2-0.3,4.1-1,6
		c-0.6,1.7-1.5,3.2-2.6,4.6c-1.1,1.3-2.5,2.4-4,3.3c-1.5,0.9-3.2,1.6-4.9,2.1c-1.8,0.6-3.6,0.9-5.4,1.2c-1.9,0.2-3.7,0.3-5.6,0.3
		c-2.2,0-4.4-0.2-6.5-0.4c-2.2-0.3-4.4-0.6-6.5-1.1c-0.3,0-0.5-0.2-0.7-0.4s-0.3-0.4-0.3-0.6c-0.1-0.7-0.1-1.7-0.2-3
		s-0.1-2.7-0.2-4.1s-0.1-2.6-0.1-3.7c0-1.1,0-1.8,0-2l2.5-0.3c0.2,1.8,0.7,3.5,1.5,5.1c0.8,1.4,1.8,2.6,3.1,3.5
		c1.3,1,2.7,1.7,4.2,2.1c1.7,0.5,3.4,0.7,5.1,0.7c1.6,0,3.2-0.2,4.8-0.6c1.5-0.3,2.9-1,4.1-1.8s2.2-1.9,2.9-3.2
		c0.8-1.5,1.1-3.1,1.1-4.8c0-1.4-0.4-2.8-1.1-3.9c-0.8-1.1-1.8-2.1-3-2.9c-1.4-0.9-2.8-1.6-4.3-2.3l-5-2c-2-0.8-4-1.6-5.9-2.5
		c-1.9-0.8-3.7-1.9-5.3-3.3c-1.6-1.3-2.8-2.9-3.8-4.7c-1-2.1-1.5-4.4-1.5-6.7c-0.1-2.8,0.6-5.6,1.9-8.1c1.2-2.1,2.9-3.9,5-5.2
		c2.1-1.4,4.5-2.3,7-2.8c2.6-0.6,5.3-0.8,8-0.8c2,0,4,0.2,5.9,0.4c2,0.3,4,0.6,6,1.1c0.3,0,0.5,0.2,0.7,0.4c0.2,0.2,0.3,0.4,0.3,0.7
		c0.1,0.7,0.1,1.7,0.2,2.9s0.1,2.5,0.2,3.8s0.1,2.4,0.1,3.4s0.1,1.6,0.1,1.8L347.6,44.6z"/>
	
		<linearGradient id="SVGID_00000031913038499812820790000005950992852150578819_" gradientUnits="userSpaceOnUse" x1="286.5001" y1="-117.6538" x2="286.5001" y2="-12.3738" gradientTransform="matrix(1 0 0 1 104 144)">
		<stop  offset="0" style="stop-color:#9D4A24"/>
		<stop  offset="0.2" style="stop-color:#E9D68A"/>
		<stop  offset="0.44" style="stop-color:#F3EB9A"/>
		<stop  offset="0.73" style="stop-color:#E9D68A"/>
		<stop  offset="1" style="stop-color:#9D4A24"/>
	</linearGradient>
	<path style="fill:url(#SVGID_00000031913038499812820790000005950992852150578819_);" d="M392.1,29.7c3.9,0,7.8,0.6,11.5,2
		c3.3,1.2,6.3,3.2,8.7,5.7c2.5,2.6,4.4,5.7,5.6,9.1c1.4,3.9,2.1,8.1,2,12.3c0.1,4.5-0.7,9-2.2,13.2c-1.3,3.6-3.4,7-6.2,9.7
		c-2.8,2.7-6.1,4.7-9.7,6c-4.1,1.4-8.4,2.1-12.7,2c-3.9,0.1-7.8-0.6-11.5-2c-3.3-1.3-6.3-3.3-8.8-5.8c-2.5-2.7-4.4-5.8-5.6-9.3
		c-1.4-4-2-8.2-2-12.4c-0.1-4.5,0.6-9,2.2-13.2c1.3-3.6,3.5-6.9,6.2-9.6c2.8-2.6,6.1-4.6,9.7-5.8C383.5,30.3,387.8,29.6,392.1,29.7z
		 M390,33.8c-5.6-0.2-10.9,2.5-13.9,7.2c-1.5,2.3-2.6,4.9-3.2,7.6c-0.7,2.9-1,5.9-1,8.9c0,3.4,0.4,6.8,1.1,10.2
		c0.7,3.2,1.9,6.2,3.5,9c1.6,2.6,3.7,4.8,6.3,6.4c2.8,1.7,6,2.5,9.3,2.4c2.9,0.1,5.8-0.6,8.3-2c2.3-1.3,4.2-3.2,5.6-5.4
		c1.5-2.4,2.6-5,3.2-7.7c0.7-3,1-6,1-9c0-3.4-0.4-6.8-1.1-10.1c-0.7-3.1-1.8-6.1-3.5-8.8c-1.6-2.5-3.7-4.7-6.3-6.2
		C396.5,34.6,393.3,33.8,390,33.8L390,33.8z"/>
	
		<linearGradient id="SVGID_00000000908409199148045350000001591358329647853701_" gradientUnits="userSpaceOnUse" x1="342.9001" y1="-115.8528" x2="342.9001" y2="-13.8674" gradientTransform="matrix(1 0 0 1 104 144)">
		<stop  offset="0" style="stop-color:#9D4A24"/>
		<stop  offset="0.2" style="stop-color:#E9D68A"/>
		<stop  offset="0.44" style="stop-color:#F3EB9A"/>
		<stop  offset="0.73" style="stop-color:#E9D68A"/>
		<stop  offset="1" style="stop-color:#9D4A24"/>
	</linearGradient>
	<path style="fill:url(#SVGID_00000000908409199148045350000001591358329647853701_);" d="M441,80.8c0,0.6,0,1.2,0.1,1.8
		c0,0.4,0.2,0.7,0.4,1c0.3,0.3,0.6,0.4,1,0.5c0.7,0.1,1.4,0.1,2,0.1h4.8c2.5,0,4.6-0.1,6.3-0.2c3-0.1,5.7-1.7,7.2-4.3
		c1.1-1.9,2.1-3.8,2.9-5.8l2.4,0.5c-0.1,0.6-0.1,1.2-0.2,1.8c-0.2,1-0.4,2.1-0.6,3.3c-0.2,1.2-0.5,2.5-0.8,3.8s-0.6,2.4-0.9,3.4
		s-1.3,1.7-2.4,1.6c-2.4,0-5.4-0.1-9-0.1s-7.9,0-13,0h-8c-0.4,0-0.7-0.1-0.9-0.4c-0.2-0.2-0.2-0.5-0.2-0.8V40.4
		c0-0.9-0.1-1.8-0.5-2.6c-0.3-0.6-0.7-1-1.3-1.3c-0.6-0.3-1.2-0.4-1.9-0.4c-0.8,0-1.6,0.1-2.3,0.1l-0.3-2.6c1.7-0.3,3.4-0.6,5-0.8
		s2.9-0.4,4.2-0.5c1.2-0.1,2.2-0.3,3-0.3c0.8-0.1,1.3-0.1,1.6-0.1c0.7-0.1,1.4,0.4,1.5,1.1c0,0.1,0,0.2,0,0.4v47.4H441z"/>
	
		<linearGradient id="SVGID_00000084514790395194034290000006910725225929798576_" gradientUnits="userSpaceOnUse" x1="392.0065" y1="-117.43" x2="392.0065" y2="-12.13" gradientTransform="matrix(1 0 0 1 104 144)">
		<stop  offset="0" style="stop-color:#9D4A24"/>
		<stop  offset="0.2" style="stop-color:#E9D68A"/>
		<stop  offset="0.44" style="stop-color:#F3EB9A"/>
		<stop  offset="0.73" style="stop-color:#E9D68A"/>
		<stop  offset="1" style="stop-color:#9D4A24"/>
	</linearGradient>
	<path style="fill:url(#SVGID_00000084514790395194034290000006910725225929798576_);" d="M486,70.5c-0.1,2.1,0.2,4.1,0.9,6.1
		c0.6,1.5,1.5,2.9,2.7,4c1.2,1,2.6,1.8,4.1,2.2c1.6,0.4,3.3,0.7,5,0.7c2.3,0,4.5-0.4,6.7-1.1c2.3-0.7,4.5-1.7,6.7-2.7V32.9
		c0-0.7,0.5-1.3,1.1-1.3l0,0c0.5-0.1,1.1-0.2,1.8-0.3l2-0.2l1.8-0.1c0.5,0,0.9,0,1.2,0c0.8,0,1.2,0.4,1.2,1.2V87
		c0.1,0.7-0.4,1.3-1.1,1.4l0,0c-0.6,0.1-1.1,0.2-1.8,0.3c-0.6,0.1-1.3,0.1-1.8,0.2c-0.6,0-1.1,0.1-1.6,0.1h-0.7
		c-0.7,0-1.1-0.4-1.2-1.2l-0.3-4c-1.5,0.8-3,1.6-4.7,2.4c-1.6,0.7-3.3,1.3-4.9,1.9c-1.7,0.5-3.3,0.9-5.1,1.3
		c-1.7,0.3-3.4,0.5-5.1,0.5c-2.1,0-4.1-0.3-6.1-0.9c-1.8-0.6-3.5-1.5-4.9-2.7c-1.5-1.3-2.6-2.9-3.4-4.6c-0.9-2.1-1.3-4.4-1.3-6.6
		V39.3c0-0.8-0.1-1.5-0.3-2.2c-0.1-0.5-0.4-1-0.8-1.4c-0.3-0.3-0.8-0.6-1.2-0.7c-0.5-0.1-1-0.2-1.6-0.2c-0.7,0-1.4,0.1-2.1,0.2
		l-0.3-2.7c1.7-0.3,3.4-0.6,4.9-0.8c1.5-0.2,3-0.4,4.2-0.5s2.2-0.3,3-0.3c0.8-0.1,1.3-0.1,1.5-0.1c0.7-0.1,1.5,0.4,1.6,1.1
		c0,0.1,0,0.3,0,0.4v38.4H486z"/>
	
		<linearGradient id="SVGID_00000062882385842611270040000006087807804694177935_" gradientUnits="userSpaceOnUse" x1="451.9998" y1="-117.7987" x2="451.9998" y2="-11.8705" gradientTransform="matrix(1 0 0 1 104 144)">
		<stop  offset="0" style="stop-color:#9D4A24"/>
		<stop  offset="0.2" style="stop-color:#E9D68A"/>
		<stop  offset="0.44" style="stop-color:#F3EB9A"/>
		<stop  offset="0.73" style="stop-color:#E9D68A"/>
		<stop  offset="1" style="stop-color:#9D4A24"/>
	</linearGradient>
	<path style="fill:url(#SVGID_00000062882385842611270040000006087807804694177935_);" d="M545.1,35.1c-2.1,0-3.9,0.1-5.2,0.2
		c-1.2,0.1-2.4,0.5-3.4,1.1c-1,0.8-1.8,1.8-2.3,3c-0.7,1.9-1.3,3.8-1.7,5.8L530,45c0-0.1,0-0.6,0-1.1c0-0.6,0.1-1.3,0.1-2.1
		c0-0.8,0.1-1.8,0.2-2.7c0.1-1,0.1-1.9,0.2-2.9c0.1-0.9,0.1-1.8,0.2-2.6c0-0.8,0.1-1.4,0.2-1.9c0-0.4,0.4-0.8,0.8-0.8h0.1
		c3,0.1,5.8,0.1,8.6,0.2c2.8,0.1,5.3,0,7.6,0h16.4c2.3,0,4.9,0,7.6,0s5.7-0.1,8.6-0.2c0.4,0,0.8,0.3,0.8,0.7l0,0
		c0.1,0.6,0.1,1.3,0.1,1.9c0,0.8,0.1,1.7,0.1,2.6c0.1,0.9,0.1,1.9,0.1,2.9s0.1,1.9,0.1,2.7s0.1,1.5,0.1,2.1s0,1,0,1.1l-2.5,0.2
		c-0.4-2-1-3.9-1.7-5.8c-0.4-1.2-1.2-2.2-2.2-3c-1-0.7-2.2-1.1-3.4-1.1c-1.4-0.1-3.1-0.2-5.3-0.2H561v52c0.1,0.7-0.5,1.3-1.2,1.4
		l0,0c-0.6,0.1-1.2,0.2-1.9,0.3c-0.7,0.1-1.3,0.1-2,0.2c-0.7,0.1-1.2,0.1-1.8,0.1h-2c-0.8,0-1.2-0.4-1.2-1.2V35.1H545.1z"/>
	
		<linearGradient id="SVGID_00000048473411254830224820000017073486392955914170_" gradientUnits="userSpaceOnUse" x1="488.3564" y1="-117.43" x2="488.3564" y2="-12.13" gradientTransform="matrix(1 0 0 1 104 144)">
		<stop  offset="0" style="stop-color:#9D4A24"/>
		<stop  offset="0.2" style="stop-color:#E9D68A"/>
		<stop  offset="0.44" style="stop-color:#F3EB9A"/>
		<stop  offset="0.73" style="stop-color:#E9D68A"/>
		<stop  offset="1" style="stop-color:#9D4A24"/>
	</linearGradient>
	<path style="fill:url(#SVGID_00000048473411254830224820000017073486392955914170_);" d="M584.8,32.1c1.7-0.3,3.4-0.6,4.9-0.8
		c1.6-0.2,2.9-0.4,4.2-0.5c1.2-0.1,2.2-0.3,3-0.3c0.8-0.1,1.3-0.1,1.5-0.1c0.7-0.1,1.4,0.4,1.6,1.1c0,0.1,0,0.3,0,0.4v55.2
		c0.1,0.7-0.4,1.3-1.1,1.4l0,0c-0.6,0.1-1.2,0.2-1.8,0.3c-0.7,0.1-1.3,0.1-2,0.2c-0.7,0.1-1.2,0.1-1.7,0.1h-1.2
		c-0.8,0-1.2-0.4-1.2-1.2V39.2c0-0.9-0.1-1.9-0.5-2.7c-0.3-0.6-0.7-1.1-1.3-1.3c-0.6-0.3-1.2-0.4-1.9-0.4c-0.8,0-1.6,0.1-2.3,0.2
		L584.8,32.1z"/>
	
		<linearGradient id="SVGID_00000047746359721634396130000015320114855563320498_" gradientUnits="userSpaceOnUse" x1="537.15" y1="-117.6538" x2="537.15" y2="-12.3738" gradientTransform="matrix(1 0 0 1 104 144)">
		<stop  offset="0" style="stop-color:#9D4A24"/>
		<stop  offset="0.2" style="stop-color:#E9D68A"/>
		<stop  offset="0.44" style="stop-color:#F3EB9A"/>
		<stop  offset="0.73" style="stop-color:#E9D68A"/>
		<stop  offset="1" style="stop-color:#9D4A24"/>
	</linearGradient>
	<path style="fill:url(#SVGID_00000047746359721634396130000015320114855563320498_);" d="M642.7,29.7c3.9,0,7.8,0.6,11.5,2
		c3.3,1.2,6.3,3.2,8.7,5.7c2.5,2.6,4.4,5.7,5.6,9.1c1.4,3.9,2.1,8.1,2,12.3c0.1,4.5-0.7,9-2.2,13.2c-1.3,3.7-3.5,7-6.3,9.7
		c-2.8,2.7-6.1,4.7-9.7,6c-4.1,1.4-8.4,2.1-12.7,2c-3.9,0.1-7.8-0.6-11.5-2c-3.3-1.3-6.3-3.3-8.7-5.9c-2.5-2.7-4.4-5.8-5.6-9.3
		c-1.3-4-2-8.2-1.9-12.4c-0.1-4.5,0.7-8.9,2.2-13.1c1.3-3.6,3.5-6.9,6.2-9.6c2.8-2.6,6.1-4.6,9.7-5.8
		C634.1,30.3,638.4,29.6,642.7,29.7z M640,33.8c-2.9-0.1-5.7,0.6-8.3,2c-2.3,1.3-4.2,3.1-5.7,5.3c-1.5,2.3-2.6,4.9-3.2,7.6
		c-0.7,2.9-1,5.9-1,8.9c0,3.4,0.4,6.8,1.1,10.2c0.7,3.2,1.9,6.2,3.5,9c1.6,2.6,3.7,4.8,6.3,6.4c2.8,1.7,6,2.5,9.3,2.4
		c2.9,0.1,5.8-0.6,8.3-2c2.3-1.3,4.2-3.2,5.7-5.4c1.5-2.4,2.6-5,3.2-7.8c0.7-3,1-6,1-9c0-3.4-0.4-6.8-1.1-10.1
		c-0.7-3.1-1.9-6.1-3.5-8.8c-1.6-2.5-3.7-4.7-6.3-6.2C646.5,34.6,643.2,33.8,640,33.8L640,33.8z"/>
	
		<linearGradient id="SVGID_00000005977395636105585790000006275998423745773444_" gradientUnits="userSpaceOnUse" x1="599.0955" y1="-117.6538" x2="599.0955" y2="-12.3638" gradientTransform="matrix(1 0 0 1 104 144)">
		<stop  offset="0" style="stop-color:#9D4A24"/>
		<stop  offset="0.2" style="stop-color:#E9D68A"/>
		<stop  offset="0.44" style="stop-color:#F3EB9A"/>
		<stop  offset="0.73" style="stop-color:#E9D68A"/>
		<stop  offset="1" style="stop-color:#9D4A24"/>
	</linearGradient>
	<path style="fill:url(#SVGID_00000005977395636105585790000006275998423745773444_);" d="M687.1,29.3c0.3,0,0.6,0.1,0.8,0.3
		l0.7,0.8l34,45.1l-1.2-44.2c0-0.4,0.3-0.6,0.8-0.6s1.4-0.2,2.4-0.3c1-0.1,1.9-0.1,2.9-0.2c0.5,0,0.8,0.2,0.8,0.7l-1.2,48v9
		c0,0.3-0.3,0.6-0.8,0.6c-0.5,0.1-1.3,0.1-2,0.1c-0.7,0-1.5,0.1-2.2,0.1c-0.2,0-0.5,0-0.7-0.2c-0.2-0.2-0.4-0.3-0.5-0.6l-34.3-45.5
		l1.2,45.3c0,0.4-0.3,0.6-0.8,0.6c-0.8,0.1-1.6,0.2-2.4,0.2c-1,0.1-2,0.1-2.8,0.1c-0.5,0-0.8-0.3-0.8-0.7l1.2-51.3l-4-5.5
		c-0.2-0.3-0.3-0.6-0.1-0.9c0.2-0.3,0.5-0.5,0.8-0.5c0.5-0.1,1.2-0.2,2-0.3l2.5-0.2l2.2-0.2C686.3,29.3,686.8,29.3,687.1,29.3z"/>
	
		<linearGradient id="SVGID_00000047746050446745091720000009288939298329762744_" gradientUnits="userSpaceOnUse" x1="652.4952" y1="-117.6538" x2="652.4952" y2="-12.3738" gradientTransform="matrix(1 0 0 1 104 144)">
		<stop  offset="0" style="stop-color:#9D4A24"/>
		<stop  offset="0.2" style="stop-color:#E9D68A"/>
		<stop  offset="0.44" style="stop-color:#F3EB9A"/>
		<stop  offset="0.73" style="stop-color:#E9D68A"/>
		<stop  offset="1" style="stop-color:#9D4A24"/>
	</linearGradient>
	<path style="fill:url(#SVGID_00000047746050446745091720000009288939298329762744_);" d="M770.2,44.6c-0.3-1.6-0.8-3.2-1.6-4.7
		c-0.7-1.3-1.6-2.4-2.7-3.3s-2.3-1.5-3.7-1.9s-2.9-0.6-4.4-0.6s-3,0.2-4.4,0.6c-1.3,0.4-2.6,1-3.7,1.8s-2,1.9-2.6,3.2
		c-0.7,1.4-1,3-1,4.6c0,1.4,0.4,2.9,1.1,4.1c0.8,1.2,1.8,2.2,3,3c1.4,0.9,2.8,1.6,4.3,2.2c1.6,0.7,3.3,1.3,5.1,2
		c2,0.8,3.9,1.6,5.9,2.4c1.9,0.8,3.7,1.9,5.3,3.2c1.6,1.2,2.9,2.8,3.8,4.6c1,2,1.5,4.3,1.5,6.5c0,2-0.3,4.1-1,6
		c-0.6,1.7-1.5,3.2-2.7,4.6c-1.1,1.3-2.5,2.4-4,3.3c-1.5,0.9-3.2,1.6-4.9,2.1c-1.8,0.6-3.6,0.9-5.5,1.2c-1.9,0.2-3.7,0.3-5.6,0.3
		c-2.2,0-4.4-0.1-6.6-0.4c-2.2-0.3-4.4-0.6-6.5-1.1c-0.3,0-0.5-0.2-0.7-0.4c-0.2-0.2-0.3-0.4-0.3-0.6c-0.1-0.7-0.1-1.7-0.2-3
		c-0.1-1.3-0.1-2.7-0.2-4.1c-0.1-1.4-0.1-2.6-0.1-3.7c0-1.1-0.1-1.8-0.1-2l2.5-0.3c0.2,1.8,0.7,3.5,1.5,5.1c0.7,1.4,1.8,2.6,3,3.6
		c1.3,1,2.7,1.7,4.2,2.1c1.7,0.5,3.4,0.7,5.1,0.7c1.6,0,3.2-0.2,4.8-0.6c1.5-0.4,2.9-1,4.1-1.8s2.2-1.9,2.9-3.2
		c0.8-1.5,1.1-3.1,1.1-4.8c0-1.4-0.4-2.8-1.1-3.9c-0.8-1.1-1.8-2.1-3-2.9c-1.4-0.9-2.8-1.6-4.3-2.3l-5-2c-2-0.8-3.9-1.6-5.9-2.5
		c-1.9-0.8-3.7-1.9-5.3-3.3c-1.6-1.3-2.9-2.9-3.8-4.7c-1-2.1-1.5-4.4-1.5-6.7c-0.1-2.8,0.6-5.6,1.9-8.1c1.2-2.1,2.9-3.9,5-5.2
		c2.1-1.4,4.5-2.3,7-2.8c2.6-0.6,5.3-0.8,8-0.8c2,0,4,0.2,5.9,0.4c2,0.3,4,0.6,6,1.1c0.3,0.1,0.5,0.2,0.7,0.4
		c0.2,0.2,0.3,0.4,0.3,0.7c0.1,0.7,0.1,1.7,0.2,2.9c0.1,1.2,0.1,2.5,0.2,3.8c0.1,1.3,0.1,2.4,0.2,3.4c0,1,0,1.6,0,1.8L770.2,44.6z"
		/>
	<polygon class="st12" points="50,92.7 50,107.9 51,107.9 51,92.7 	"/>
	<path class="st13" d="M64.2,116.1L64.2,116.1L64.2,116.1z"/>
	
		<linearGradient id="SVGID_00000000911479725431660250000010042855981315037606_" gradientUnits="userSpaceOnUse" x1="-33.3917" y1="-96.49" x2="0.7083" y2="-96.49" gradientTransform="matrix(1 0 0 1 104 144)">
		<stop  offset="0" style="stop-color:#50A5DB"/>
		<stop  offset="1" style="stop-color:#304980"/>
	</linearGradient>
	<path style="fill:url(#SVGID_00000000911479725431660250000010042855981315037606_);" d="M76.4,36.7c4.4,0,8.7,0.5,13,1.5
		c5.5,1.1,10.7,3.4,15.3,6.6L76.3,58.4L70.6,37C72.6,36.8,74.4,36.7,76.4,36.7z"/>
	
		<linearGradient id="SVGID_00000162315718144470857520000009227789569719197847_" gradientUnits="userSpaceOnUse" x1="-33.8772" y1="-67.79" x2="-24.5264" y2="-67.79" gradientTransform="matrix(1 0 0 1 104 144)">
		<stop  offset="0" style="stop-color:#50A5DB"/>
		<stop  offset="1" style="stop-color:#304980"/>
	</linearGradient>
	<polygon style="fill:url(#SVGID_00000162315718144470857520000009227789569719197847_);" points="77,58.4 77,115.5 71,94.1 71,37 	
		"/>
	
		<linearGradient id="SVGID_00000121245265747461274970000014930944070241952942_" gradientUnits="userSpaceOnUse" x1="-28.05" y1="-63.89" x2="-4.995728e-02" y2="-63.89" gradientTransform="matrix(1 0 0 1 104 144)">
		<stop  offset="0.19" style="stop-color:#395B99"/>
		<stop  offset="1" style="stop-color:#4369B1"/>
	</linearGradient>
	<polygon style="fill:url(#SVGID_00000121245265747461274970000014930944070241952942_);" points="104,45.2 104,101.6 76,115.1 
		76,58.6 	"/>
	
		<linearGradient id="SVGID_00000019672373129887176550000012640861382065841032_" gradientUnits="userSpaceOnUse" x1="-49.2732" y1="-85.1954" x2="-26.1532" y2="-77.7654" gradientTransform="matrix(1 0 0 1 104 144)">
		<stop  offset="0" style="stop-color:#74CDDF"/>
		<stop  offset="1" style="stop-color:#007EAA"/>
	</linearGradient>
	<path style="fill:url(#SVGID_00000019672373129887176550000012640861382065841032_);" d="M71,53.4l4.8,21.5l-28.4-7.8h-0.1
		C51.4,59.6,60.6,54.6,71,53.4z"/>
	
		<linearGradient id="SVGID_00000039853320482830778660000005069492164284155829_" gradientUnits="userSpaceOnUse" x1="-56.05" y1="-52.79" x2="-28.05" y2="-52.79" gradientTransform="matrix(1 0 0 1 104 144)">
		<stop  offset="0" style="stop-color:#74CDDF"/>
		<stop  offset="1" style="stop-color:#007EAA"/>
	</linearGradient>
	<polygon style="fill:url(#SVGID_00000039853320482830778660000005069492164284155829_);" points="76,74.8 76,115.3 48,107.7 
		48,67.2 	"/>
	<rect x="64" y="101.1" class="st13" width="1" height="15"/>
	<g transform="translate(66 49.18)">
	</g>
	<g transform="translate(66 49.18)">
	</g>
	<g transform="translate(68 43.18)">
	</g>
	<g transform="translate(68 43.18)">
	</g>
	<g transform="translate(68 44.18)">
	</g>
	<g transform="translate(68 44.18)">
	</g>
	<g transform="translate(67 45.18)">
	</g>
	<g transform="translate(67 45.18)">
	</g>
	<g transform="translate(67 46.18)">
	</g>
	<g transform="translate(67 46.18)">
	</g>
	<g transform="translate(67 47.18)">
	</g>
	<g transform="translate(67 47.18)">
	</g>
	<g transform="translate(66 48.18)">
	</g>
	<g transform="translate(66 48.18)">
	</g>
	
		<linearGradient id="SVGID_00000083772433608553964920000004873298162195459237_" gradientUnits="userSpaceOnUse" x1="9.11" y1="-30.64" x2="6.65" y2="-30.64" gradientTransform="matrix(1 0 0 1 104 144)">
		<stop  offset="0" style="stop-color:#ED2926"/>
		<stop  offset="1" style="stop-color:#BE2126"/>
	</linearGradient>
	<path style="fill:url(#SVGID_00000083772433608553964920000004873298162195459237_);" d="M113,101.9v15.2c0,2.7-0.7,5.4-2,7.8
		v-15.2C112.3,107.3,113,104.7,113,101.9z"/>
	
		<linearGradient id="SVGID_00000078734644719285744470000018085037092056274339_" gradientUnits="userSpaceOnUse" x1="-21.4817" y1="-45.04" x2="8.9189" y2="-45.04" gradientTransform="matrix(1 0 0 1 104 144)">
		<stop  offset="0" style="stop-color:#ED2A26"/>
		<stop  offset="1" style="stop-color:#ED2926"/>
	</linearGradient>
	<path style="fill:url(#SVGID_00000078734644719285744470000018085037092056274339_);" d="M106.2,88.3c6.6,5.8,8.8,13.9,4.8,21.4
		l-28.4-7.8L106.2,88.3z"/>
	
		<linearGradient id="SVGID_00000088116834775164019670000017613303183702664631_" gradientUnits="userSpaceOnUse" x1="-22.4307" y1="-36.4198" x2="9.158" y2="-24.5493" gradientTransform="matrix(1 0 0 1 104 144)">
		<stop  offset="0" style="stop-color:#ED2926"/>
		<stop  offset="1" style="stop-color:#BE2126"/>
	</linearGradient>
	<polygon style="fill:url(#SVGID_00000088116834775164019670000017613303183702664631_);" points="111,109.7 111,124.7 83,117.1 
		83,102.1 	"/>
	
		<linearGradient id="SVGID_00000013176370932758109310000009110746703070112686_" gradientUnits="userSpaceOnUse" x1="8.77" y1="-45.89" x2="6.33" y2="-45.89" gradientTransform="matrix(1 0 0 1 104 144)">
		<stop  offset="0" style="stop-color:#ED2926"/>
		<stop  offset="1" style="stop-color:#BE2126"/>
	</linearGradient>
	<path style="fill:url(#SVGID_00000013176370932758109310000009110746703070112686_);" d="M113,86.7v15.1c0,2.7-0.7,5.4-2,7.8V94.4
		C112.3,92,113,89.4,113,86.7z"/>
	
		<linearGradient id="SVGID_00000068661365910374172350000000798865752915452574_" gradientUnits="userSpaceOnUse" x1="-21.1499" y1="-60.34" x2="9.2506" y2="-60.34" gradientTransform="matrix(1 0 0 1 104 144)">
		<stop  offset="0" style="stop-color:#ED2926"/>
		<stop  offset="1" style="stop-color:#BE2126"/>
	</linearGradient>
	<path style="fill:url(#SVGID_00000068661365910374172350000000798865752915452574_);" d="M106.5,73c6.6,5.8,8.8,13.9,4.8,21.4
		l-28.4-7.7L106.5,73z"/>
	
		<linearGradient id="SVGID_00000077315000515934943490000016301274278281913270_" gradientUnits="userSpaceOnUse" x1="-22.4307" y1="-51.7198" x2="9.158" y2="-39.8494" gradientTransform="matrix(1 0 0 1 104 144)">
		<stop  offset="0" style="stop-color:#ED2926"/>
		<stop  offset="1" style="stop-color:#BE2126"/>
	</linearGradient>
	<polygon style="fill:url(#SVGID_00000077315000515934943490000016301274278281913270_);" points="111,94.4 111,109.4 83,101.8 
		83,86.8 	"/>
	
		<linearGradient id="SVGID_00000083786647588354781040000010783889569944591035_" gradientUnits="userSpaceOnUse" x1="8.65" y1="-61.44" x2="6.2" y2="-61.44" gradientTransform="matrix(1 0 0 1 104 144)">
		<stop  offset="0" style="stop-color:#ED2926"/>
		<stop  offset="1" style="stop-color:#BE2126"/>
	</linearGradient>
	<path style="fill:url(#SVGID_00000083786647588354781040000010783889569944591035_);" d="M113,71.1v15.2c0,2.7-0.7,5.4-2,7.8V78.9
		C112.3,76.4,113,73.8,113,71.1z"/>
	
		<linearGradient id="SVGID_00000055709517049257718690000016724386914219278471_" gradientUnits="userSpaceOnUse" x1="-21.0017" y1="-75.94" x2="9.4102" y2="-75.94" gradientTransform="matrix(1 0 0 1 104 144)">
		<stop  offset="0" style="stop-color:#ED2926"/>
		<stop  offset="1" style="stop-color:#BE2126"/>
	</linearGradient>
	<path style="fill:url(#SVGID_00000055709517049257718690000016724386914219278471_);" d="M106.7,57.4c6.6,5.8,8.8,13.9,4.8,21.4
		L83,71.1L106.7,57.4z"/>
	
		<linearGradient id="SVGID_00000013171385115602632850000007307480870470379196_" gradientUnits="userSpaceOnUse" x1="-22.4395" y1="-67.27" x2="9.1505" y2="-55.4053" gradientTransform="matrix(1 0 0 1 104 144)">
		<stop  offset="0" style="stop-color:#ED2926"/>
		<stop  offset="1" style="stop-color:#BE2126"/>
	</linearGradient>
	<polygon style="fill:url(#SVGID_00000013171385115602632850000007307480870470379196_);" points="111,78.9 111,93.8 83,86.2 
		83,71.2 	"/>
	
		<linearGradient id="SVGID_00000041276717395622894050000008836759737376416403_" gradientUnits="userSpaceOnUse" x1="8.97" y1="-76.89" x2="6.52" y2="-76.89" gradientTransform="matrix(1 0 0 1 104 144)">
		<stop  offset="0" style="stop-color:#ED2926"/>
		<stop  offset="1" style="stop-color:#BE2126"/>
	</linearGradient>
	<path style="fill:url(#SVGID_00000041276717395622894050000008836759737376416403_);" d="M113,55.7v15.2c0,2.7-0.7,5.4-2,7.7V63.4
		C112.3,61.1,113,58.4,113,55.7z"/>
	
		<linearGradient id="SVGID_00000067211192049238178510000018139930318701778066_" gradientUnits="userSpaceOnUse" x1="-21.3499" y1="-91.34" x2="9.0506" y2="-91.34" gradientTransform="matrix(1 0 0 1 104 144)">
		<stop  offset="0" style="stop-color:#ED2926"/>
		<stop  offset="1" style="stop-color:#BE2126"/>
	</linearGradient>
	<path style="fill:url(#SVGID_00000067211192049238178510000018139930318701778066_);" d="M106.3,42c6.6,5.8,8.8,13.9,4.8,21.4
		l-28.4-7.8L106.3,42z"/>
	
		<linearGradient id="SVGID_00000015315275142845262660000011645633016896212110_" gradientUnits="userSpaceOnUse" x1="-22.4192" y1="-82.6643" x2="9.1498" y2="-70.8037" gradientTransform="matrix(1 0 0 1 104 144)">
		<stop  offset="0" style="stop-color:#ED2926"/>
		<stop  offset="1" style="stop-color:#BE2126"/>
	</linearGradient>
	<polygon style="fill:url(#SVGID_00000015315275142845262660000011645633016896212110_);" points="111,63.5 111,78.5 83,70.8 
		83,55.9 	"/>
	
		<linearGradient id="SVGID_00000068668803796703608190000004880950417086080942_" gradientUnits="userSpaceOnUse" x1="9.24" y1="-92.24" x2="6.8" y2="-92.24" gradientTransform="matrix(1 0 0 1 104 144)">
		<stop  offset="0" style="stop-color:#ED2926"/>
		<stop  offset="1" style="stop-color:#BE2126"/>
	</linearGradient>
	<path style="fill:url(#SVGID_00000068668803796703608190000004880950417086080942_);" d="M113,40.3v15.2c0,2.7-0.7,5.4-2,7.8V48.1
		C112.3,45.7,113,43,113,40.3z"/>
	
		<linearGradient id="SVGID_00000160165682885266132290000009187235589012028314_" gradientUnits="userSpaceOnUse" x1="-6.7981" y1="-107.2085" x2="4.6018" y2="-88.9985" gradientTransform="matrix(1 0 0 1 104 144)">
		<stop  offset="0" style="stop-color:#ED2A26"/>
		<stop  offset="1" style="stop-color:#ED2926"/>
	</linearGradient>
	<path style="fill:url(#SVGID_00000160165682885266132290000009187235589012028314_);" d="M106.4,26.7c6.6,5.8,8.8,13.9,4.8,21.4
		l-28.4-7.8L106.4,26.7z"/>
	
		<linearGradient id="SVGID_00000024686592357033334140000018250360397665140913_" gradientUnits="userSpaceOnUse" x1="-13.1139" y1="-101.9753" x2="0.2702" y2="-80.5983" gradientTransform="matrix(1 0 0 1 104 144)">
		<stop  offset="0" style="stop-color:#ED2926"/>
		<stop  offset="1" style="stop-color:#BE2126"/>
	</linearGradient>
	<polygon style="fill:url(#SVGID_00000024686592357033334140000018250360397665140913_);" points="111,48.1 111,63.1 83,55.4 
		83,40.5 	"/>
	
		<linearGradient id="SVGID_00000039113633975434869610000009546841357699071651_" gradientUnits="userSpaceOnUse" x1="-59.05" y1="-36.14" x2="-52.05" y2="-36.14" gradientTransform="matrix(1 0 0 1 104 144)">
		<stop  offset="0" style="stop-color:#50B748"/>
		<stop  offset="1" style="stop-color:#25572B"/>
	</linearGradient>
	<path style="fill:url(#SVGID_00000039113633975434869610000009546841357699071651_);" d="M45,117V84.7c0,5.2,2.5,10.1,7,14.1v32.3
		C47.5,127,45,122.1,45,117z"/>
	
		<linearGradient id="SVGID_00000098925779518063303550000017144560909311623087_" gradientUnits="userSpaceOnUse" x1="-57.5518" y1="-65.0829" x2="-45.6618" y2="-55.6529" gradientTransform="matrix(1 0 0 1 104 144)">
		<stop  offset="0" style="stop-color:#50B748"/>
		<stop  offset="1" style="stop-color:#3E7A41"/>
	</linearGradient>
	<path style="fill:url(#SVGID_00000098925779518063303550000017144560909311623087_);" d="M47.1,78.1L47.1,78.1l28.4,7.7L51.9,99.4
		C45.2,93.7,43,85.6,47.1,78.1z"/>
	
		<linearGradient id="SVGID_00000043446366398123625710000000613033913864066988_" gradientUnits="userSpaceOnUse" x1="-24.034" y1="-40.4216" x2="-54.0264" y2="-32.5908" gradientTransform="matrix(1 0 0 1 104 144)">
		<stop  offset="0" style="stop-color:#50B748"/>
		<stop  offset="1" style="stop-color:#3E7A41"/>
	</linearGradient>
	<polygon style="fill:url(#SVGID_00000043446366398123625710000000613033913864066988_);" points="76,85 76,116.8 52,130.6 52,98.9 
			"/>
	
		<linearGradient id="SVGID_00000016069232172213299930000001717228762621490311_" gradientUnits="userSpaceOnUse" x1="-5.4953" y1="-16.9004" x2="-22.596" y2="-26.0045" gradientTransform="matrix(1 0 0 1 104 144)">
		<stop  offset="5.000000e-02" style="stop-color:#EEE316"/>
		<stop  offset="1" style="stop-color:#D2691C"/>
	</linearGradient>
	<path style="fill:url(#SVGID_00000016069232172213299930000001717228762621490311_);" d="M104,109v15.4c-4.1,7.6-13.5,12.7-24,13.9
		v-15.4C90.5,121.7,99.9,116.6,104,109z"/>
	
		<linearGradient id="SVGID_00000000182600681600015200000002464709930443521977_" gradientUnits="userSpaceOnUse" x1="-34.05" y1="-23.94" x2="-24.05" y2="-23.94" gradientTransform="matrix(1 0 0 1 104 144)">
		<stop  offset="5.000000e-02" style="stop-color:#EEE316"/>
		<stop  offset="1" style="stop-color:#D2691C"/>
	</linearGradient>
	<polygon style="fill:url(#SVGID_00000000182600681600015200000002464709930443521977_);" points="80,123.2 80,138.5 70,117 
		70,101.7 	"/>
	
		<linearGradient id="SVGID_00000005958582629471724230000016606330462567116723_" gradientUnits="userSpaceOnUse" x1="-11.1844" y1="-27.0806" x2="-37.7445" y2="-53.4506" gradientTransform="matrix(1 0 0 1 104 144)">
		<stop  offset="5.000000e-02" style="stop-color:#EEE316"/>
		<stop  offset="1" style="stop-color:#D2691C"/>
	</linearGradient>
	<path style="fill:url(#SVGID_00000005958582629471724230000016606330462567116723_);" d="M75.4,101.5l28.4,7.8
		c-4,7.4-13.2,12.4-23.6,13.6L75.4,101.5z"/>
	
		<linearGradient id="SVGID_00000102512265565923249190000008628232403669827225_" gradientUnits="userSpaceOnUse" x1="-39.8838" y1="-20.54" x2="-23.3303" y2="-20.54" gradientTransform="matrix(1 0 0 1 104 144)">
		<stop  offset="0" style="stop-color:#F28420"/>
		<stop  offset="1" style="stop-color:#D2691C"/>
	</linearGradient>
	<path style="fill:url(#SVGID_00000102512265565923249190000008628232403669827225_);" d="M80,116.5v21.3c-1.6,0.2-3.1,0.3-4.7,0.3
		c-3.6,0-7.2-0.5-10.7-1.4c-4.6-1.2-8.9-3.4-12.6-6.5v-21.3c3.6,3.1,7.9,5.3,12.6,6.5c3.5,0.9,7.1,1.4,10.7,1.4
		C76.8,116.8,78.4,116.7,80,116.5z"/>
	
		<linearGradient id="SVGID_00000173868235885637004340000001034889424737753277_" gradientUnits="userSpaceOnUse" x1="-27.8342" y1="-48.2185" x2="-39.2642" y2="-29.6484" gradientTransform="matrix(1 0 0 1 104 144)">
		<stop  offset="0" style="stop-color:#F28420"/>
		<stop  offset="1" style="stop-color:#D2691C"/>
	</linearGradient>
	<path style="fill:url(#SVGID_00000173868235885637004340000001034889424737753277_);" d="M75.4,95l4.8,21.4
		c-1.6,0.2-3.2,0.3-4.8,0.2c-3.7,0-7.3-0.5-10.9-1.4c-4.7-1.2-9.1-3.4-12.8-6.6L75.4,95z"/>
</g>
</svg>
